<svg xmlns="http://www.w3.org/2000/svg" xmlns:svg="http://www.w3.org/2000/svg" xmlns:xlink="http://www.w3.org/1999/xlink" id="svg2" width="48" height="48" version="1.1"><defs id="defs4"><linearGradient id="linearGradient5060"><stop id="stop5062" offset="0" stop-color="#000" stop-opacity="1"/><stop id="stop5064" offset="1" stop-color="#000" stop-opacity="0"/></linearGradient><linearGradient id="linearGradient3598"><stop id="stop3600" offset="0" stop-color="#000" stop-opacity="1"/><stop id="stop5056" offset="1" stop-color="#000" stop-opacity=".498"/><stop id="stop3602" offset="1" stop-color="#000" stop-opacity="0"/></linearGradient><linearGradient id="linearGradient5070" x1="52.067" x2="53.407" y1="1029.133" y2="1029.133" gradientTransform="translate(-5.4933245,-1.255617)" gradientUnits="userSpaceOnUse" xlink:href="#linearGradient5060"/><filter id="filter5100" width="8.642" height="1.059" x="-3.821" y="-.029"><feGaussianBlur id="feGaussianBlur5102" stdDeviation=".54"/></filter><linearGradient id="linearGradient5070-5" x1="52.067" x2="53.407" y1="1029.133" y2="1029.133" gradientTransform="translate(-5.4933245,-1.255617)" gradientUnits="userSpaceOnUse" xlink:href="#linearGradient5060-1"/><linearGradient id="linearGradient5060-1"><stop id="stop5062-6" offset="0" stop-color="#000" stop-opacity="1"/><stop id="stop5064-0" offset="1" stop-color="#000" stop-opacity="0"/></linearGradient><filter id="filter5100-9" width="8.642" height="1.059" x="-3.821" y="-.029" color-interpolation-filters="sRGB"><feGaussianBlur id="feGaussianBlur5102-1" stdDeviation=".54"/></filter><linearGradient id="linearGradient5123" x1="52.067" x2="53.407" y1="1029.133" y2="1029.133" gradientTransform="translate(17.106625,4.0807905)" gradientUnits="userSpaceOnUse" xlink:href="#linearGradient5060-1"/></defs><metadata id="metadata7"/><g id="layer1" transform="translate(0,-1004.3622)"><path id="path5058" fill="none" stroke="url(#linearGradient5070)" stroke-linecap="butt" stroke-linejoin="miter" stroke-opacity="1" stroke-width="1" d="m 47.242591,1005.7474 c 0.02394,0.2045 -0.04024,0.4266 0,0.6278 0.0423,0.2116 0.135488,0.4132 0.156952,0.6279 0.03123,0.3123 0,0.6278 0,0.9417 0,0.7847 0,1.5695 0,2.3542 0,5.4411 0,10.8821 0,16.3231 0,1.8834 0,3.7668 0,5.6502 0,0.6279 0,1.2557 0,1.8835 0,0.2092 0.02311,0.4198 0,0.6278 -0.02946,0.2651 -0.123863,0.52 -0.156952,0.7847 -0.03894,0.3115 0,0.6278 0,0.9418 0,0.4185 0,0.837 0,1.2556 0,0.8894 0,1.7788 0,2.6682 0,0.3139 0.02842,0.6291 0,0.9417 -0.02415,0.2656 -0.130408,0.5193 -0.156952,0.7847 -0.02603,0.2603 0,0.5232 0,0.7848 0,0.2616 0,0.5232 0,0.7848 0,1.3602 0,2.7205 0,4.0807 0,0.074 -0.0071,0.7777 0,0.7848 0.03699,0.037 0.119958,-0.037 0.156952,0 0.005,0 0,0.4328 0,0.4708 0,0.2093 0,0.4186 0,0.6278 0,0.052 0,0.1047 0,0.157 0,0.052 0.05232,0.1569 0,0.1569 -0.05232,0 -0.03699,-0.1199 0,-0.1569 0.03699,-0.037 0.104635,0 0.156952,0" filter="url(#filter5100)"/><path id="path5058-2" fill="none" stroke="url(#linearGradient5123)" stroke-linecap="butt" stroke-linejoin="miter" stroke-opacity="1" stroke-width="1" d="m 69.842541,1011.0837 c 0.02394,0.2045 -0.04024,0.4266 0,0.6278 0.0423,0.2116 0.135488,0.4132 0.156952,0.6279 0.03123,0.3123 0,0.6278 0,0.9417 0,0.7847 0,1.5695 0,2.3542 0,5.4411 0,10.8821 0,16.3231 0,1.8834 0,3.7668 0,5.6502 0,0.6279 0,1.2557 0,1.8835 0,0.2092 0.02311,0.4198 0,0.6278 -0.02946,0.2651 -0.123863,0.52 -0.156952,0.7847 -0.03894,0.3115 0,0.6278 0,0.9418 0,0.4185 0,0.837 0,1.2556 0,0.8894 0,1.7788 0,2.6682 0,0.3139 0.02842,0.6291 0,0.9417 -0.02415,0.2656 -0.130408,0.5193 -0.156952,0.7847 -0.02603,0.2603 0,0.5232 0,0.7848 0,0.2616 0,0.5232 0,0.7848 0,1.3602 0,2.7205 0,4.0807 0,0.074 -0.0071,0.7777 0,0.7848 0.03699,0.037 0.119958,-0.037 0.156952,0 0.005,0 0,0.4328 0,0.4708 0,0.2093 0,0.4186 0,0.6278 0,0.052 0,0.1047 0,0.157 0,0.052 0.05232,0.1569 0,0.1569 -0.05232,0 -0.03699,-0.1199 0,-0.1569 0.03699,-0.037 0.104635,0 0.156952,0" filter="url(#filter5100-9)" transform="matrix(0.00689565,0.99997622,-0.99997622,0.00689565,1057.4614,973.82277)"/><rect id="rect2816" width="45" height="45" x="1.578" y="1005.209" fill="#4e9a06" stroke="#142701" stroke-opacity="1" rx="1.365" ry="1.34"/><rect id="rect3590" width="26.054" height="25.426" x="10.83" y="1015.165" fill="#555753" stroke="#2e3436" stroke-dasharray="none" stroke-miterlimit="4" stroke-opacity="1" stroke-width="1" rx="1.365" ry="1.34"/><text id="text3592" x="3.148" y="1042.191" fill="#000" fill-opacity="1" stroke="none" font-family="Bitstream Vera Sans" font-size="17.584" font-style="normal" font-weight="normal" transform="scale(1.0064984,0.99354354)" xml:space="preserve"><tspan id="tspan3594" x="3.148" y="1042.191">MIPS</tspan></text></g></svg>